<svg xmlns="http://www.w3.org/2000/svg" viewBox="0 0 48 48" width="48" height="48">
  <circle cx="18" cy="18" r="8" fill="#FBBF24" />
  <g stroke="#FBBF24" stroke-width="2" stroke-linecap="round">
    <line x1="18" y1="4" x2="18" y2="7" />
    <line x1="18" y1="30" x2="18" y2="33" />
    <line x1="4" y1="18" x2="7" y2="18" />
    <line x1="29" y1="18" x2="32" y2="18" />
    <line x1="8.1" y1="8.1" x2="10.2" y2="10.2" />
    <line x1="25.8" y1="25.8" x2="27.9" y2="27.9" />
    <line x1="8.1" y1="27.9" x2="10.2" y2="25.8" />
    <line x1="25.8" y1="10.2" x2="27.9" y2="8.1" />
  </g>
  <path d="M38 32H20a7 7 0 01-.5-14A9 9 0 0136 20a6 6 0 012 12z" fill="#E2E8F0" />
  <path d="M38 32H20a7 7 0 01-.5-14A9 9 0 0136 20a6 6 0 012 12z" stroke="#94A3B8" stroke-width="2" stroke-linecap="round" stroke-linejoin="round" fill="none" />
  <g stroke="#60A5FA" stroke-width="2" stroke-linecap="round">
    <line x1="24" y1="36" x2="22" y2="40" />
    <line x1="30" y1="36" x2="28" y2="40" />
  </g>
</svg>